<mxfile host="65bd71144e">
    <diagram id="4DCZAor1pFf8hq6RTDfj" name="Страница 1">
        <mxGraphModel dx="865" dy="498" grid="1" gridSize="10" guides="1" tooltips="1" connect="1" arrows="1" fold="1" page="1" pageScale="1" pageWidth="827" pageHeight="1169" math="0" shadow="0">
            <root>
                <mxCell id="0"/>
                <mxCell id="1" parent="0"/>
                <mxCell id="3" style="edgeStyle=none;html=1;exitX=0.5;exitY=1;exitDx=0;exitDy=0;fontSize=20;" edge="1" parent="1" source="2" target="4">
                    <mxGeometry relative="1" as="geometry">
                        <mxPoint x="430" y="120" as="targetPoint"/>
                    </mxGeometry>
                </mxCell>
                <mxCell id="2" value="&lt;font style=&quot;font-size: 20px&quot;&gt;Начало&lt;/font&gt;" style="ellipse;whiteSpace=wrap;html=1;" vertex="1" parent="1">
                    <mxGeometry x="370" y="10" width="120" height="80" as="geometry"/>
                </mxCell>
                <mxCell id="6" value="" style="edgeStyle=none;html=1;fontSize=14;" edge="1" parent="1" source="4" target="5">
                    <mxGeometry relative="1" as="geometry"/>
                </mxCell>
                <mxCell id="4" value="&lt;font style=&quot;font-size: 14px&quot;&gt;startArray // Заданный массив,&lt;br&gt;i = 0 // Счетчик элементов startArray,&lt;br&gt;j = 0 // Счетчик элементов newArray&lt;br&gt;&lt;/font&gt;" style="rounded=0;whiteSpace=wrap;html=1;fontSize=20;" vertex="1" parent="1">
                    <mxGeometry x="287.5" y="120" width="292.5" height="120" as="geometry"/>
                </mxCell>
                <mxCell id="8" value="" style="edgeStyle=none;html=1;fontSize=14;" edge="1" parent="1" source="5" target="7">
                    <mxGeometry relative="1" as="geometry"/>
                </mxCell>
                <mxCell id="17" value="" style="edgeStyle=none;html=1;fontSize=14;" edge="1" parent="1" source="5" target="15">
                    <mxGeometry relative="1" as="geometry"/>
                </mxCell>
                <mxCell id="5" value="for i &amp;lt; длинны startArray" style="rhombus;whiteSpace=wrap;html=1;fontSize=20;rounded=0;" vertex="1" parent="1">
                    <mxGeometry x="266.88" y="300" width="326.25" height="80" as="geometry"/>
                </mxCell>
                <mxCell id="10" value="" style="edgeStyle=none;html=1;fontSize=14;exitX=0;exitY=0.5;exitDx=0;exitDy=0;entryX=0.405;entryY=0.033;entryDx=0;entryDy=0;entryPerimeter=0;" edge="1" parent="1" source="7" target="9">
                    <mxGeometry relative="1" as="geometry"/>
                </mxCell>
                <mxCell id="13" value="" style="edgeStyle=none;html=1;fontSize=14;exitX=1;exitY=0.5;exitDx=0;exitDy=0;" edge="1" parent="1" source="7" target="12">
                    <mxGeometry relative="1" as="geometry">
                        <mxPoint x="610" y="550" as="sourcePoint"/>
                    </mxGeometry>
                </mxCell>
                <mxCell id="7" value="if кол-во символов элементов массива startArray[i] &amp;lt;= 3" style="rhombus;whiteSpace=wrap;html=1;fontSize=20;rounded=0;" vertex="1" parent="1">
                    <mxGeometry x="258.44" y="440" width="343.13" height="160" as="geometry"/>
                </mxCell>
                <mxCell id="11" style="edgeStyle=none;html=1;exitX=0.432;exitY=1.073;exitDx=0;exitDy=0;entryX=0;entryY=0.5;entryDx=0;entryDy=0;fontSize=14;exitPerimeter=0;" edge="1" parent="1" source="9" target="5">
                    <mxGeometry relative="1" as="geometry">
                        <Array as="points">
                            <mxPoint x="262" y="720"/>
                            <mxPoint x="140" y="720"/>
                            <mxPoint x="140" y="340"/>
                        </Array>
                    </mxGeometry>
                </mxCell>
                <mxCell id="9" value="j++,&lt;br&gt;i++" style="whiteSpace=wrap;html=1;fontSize=20;rounded=0;" vertex="1" parent="1">
                    <mxGeometry x="210" y="640" width="120" height="60" as="geometry"/>
                </mxCell>
                <mxCell id="14" style="edgeStyle=none;html=1;fontSize=14;" edge="1" parent="1" source="12">
                    <mxGeometry relative="1" as="geometry">
                        <mxPoint x="260" y="720" as="targetPoint"/>
                        <Array as="points">
                            <mxPoint x="600" y="720"/>
                        </Array>
                    </mxGeometry>
                </mxCell>
                <mxCell id="12" value="i++" style="whiteSpace=wrap;html=1;fontSize=20;rounded=0;" vertex="1" parent="1">
                    <mxGeometry x="539.995" y="640" width="120" height="60" as="geometry"/>
                </mxCell>
                <mxCell id="19" value="" style="edgeStyle=none;html=1;fontSize=14;entryX=1;entryY=0.5;entryDx=0;entryDy=0;" edge="1" parent="1" source="15" target="26">
                    <mxGeometry relative="1" as="geometry">
                        <mxPoint x="438" y="860" as="targetPoint"/>
                        <Array as="points">
                            <mxPoint x="720" y="790"/>
                            <mxPoint x="610" y="790"/>
                        </Array>
                    </mxGeometry>
                </mxCell>
                <mxCell id="15" value="&lt;span&gt;newArray // Новый массив с j кол-вом эллементов&lt;br&gt;&lt;/span&gt;" style="rounded=0;whiteSpace=wrap;html=1;fontSize=14;" vertex="1" parent="1">
                    <mxGeometry x="640" y="310" width="150" height="60" as="geometry"/>
                </mxCell>
                <mxCell id="23" style="edgeStyle=none;html=1;exitX=0.5;exitY=1;exitDx=0;exitDy=0;entryX=0.5;entryY=0;entryDx=0;entryDy=0;fontSize=14;" edge="1" parent="1" source="21" target="22">
                    <mxGeometry relative="1" as="geometry"/>
                </mxCell>
                <mxCell id="33" value="" style="edgeStyle=none;html=1;fontSize=14;entryX=0.5;entryY=0;entryDx=0;entryDy=0;exitX=1;exitY=0.5;exitDx=0;exitDy=0;" edge="1" parent="1" source="21" target="32">
                    <mxGeometry relative="1" as="geometry">
                        <mxPoint x="430" y="1360" as="targetPoint"/>
                        <Array as="points">
                            <mxPoint x="730" y="930"/>
                            <mxPoint x="730" y="1360"/>
                            <mxPoint x="438" y="1360"/>
                        </Array>
                    </mxGeometry>
                </mxCell>
                <mxCell id="21" value="for i &amp;lt; длинны startArray" style="rhombus;whiteSpace=wrap;html=1;fontSize=20;rounded=0;" vertex="1" parent="1">
                    <mxGeometry x="275.32" y="890" width="326.25" height="80" as="geometry"/>
                </mxCell>
                <mxCell id="25" value="" style="edgeStyle=none;html=1;fontSize=14;exitX=0;exitY=0.5;exitDx=0;exitDy=0;entryX=0.466;entryY=-0.04;entryDx=0;entryDy=0;entryPerimeter=0;" edge="1" parent="1" source="22" target="24">
                    <mxGeometry relative="1" as="geometry">
                        <Array as="points"/>
                    </mxGeometry>
                </mxCell>
                <mxCell id="30" value="" style="edgeStyle=none;html=1;fontSize=14;exitX=1;exitY=0.5;exitDx=0;exitDy=0;" edge="1" parent="1" source="22" target="29">
                    <mxGeometry relative="1" as="geometry"/>
                </mxCell>
                <mxCell id="22" value="if кол-во символов элементов массива startArray[i] &amp;lt;= 3" style="rhombus;whiteSpace=wrap;html=1;fontSize=20;rounded=0;" vertex="1" parent="1">
                    <mxGeometry x="266.88" y="990" width="343.13" height="160" as="geometry"/>
                </mxCell>
                <mxCell id="28" style="edgeStyle=none;html=1;fontSize=14;exitX=0;exitY=0.5;exitDx=0;exitDy=0;entryX=0;entryY=0.5;entryDx=0;entryDy=0;" edge="1" parent="1" source="24" target="21">
                    <mxGeometry relative="1" as="geometry">
                        <mxPoint x="120" y="990" as="targetPoint"/>
                        <Array as="points">
                            <mxPoint x="120" y="1230"/>
                            <mxPoint x="120" y="930"/>
                        </Array>
                    </mxGeometry>
                </mxCell>
                <mxCell id="24" value="newArray[j] = startArray[i],&lt;br&gt;j++,&lt;br&gt;i++" style="whiteSpace=wrap;html=1;fontSize=20;rounded=0;" vertex="1" parent="1">
                    <mxGeometry x="149.21999999999997" y="1190" width="241.56" height="80" as="geometry"/>
                </mxCell>
                <mxCell id="27" style="edgeStyle=none;html=1;entryX=0.5;entryY=0;entryDx=0;entryDy=0;fontSize=14;" edge="1" parent="1" source="26" target="21">
                    <mxGeometry relative="1" as="geometry"/>
                </mxCell>
                <mxCell id="26" value="i = 0,&lt;br&gt;j = 0" style="rounded=0;whiteSpace=wrap;html=1;fontSize=14;" vertex="1" parent="1">
                    <mxGeometry x="378.45" y="760" width="120" height="60" as="geometry"/>
                </mxCell>
                <mxCell id="31" style="edgeStyle=none;html=1;exitX=0;exitY=0.5;exitDx=0;exitDy=0;fontSize=14;" edge="1" parent="1" source="29">
                    <mxGeometry relative="1" as="geometry">
                        <mxPoint x="120" y="1220" as="targetPoint"/>
                        <Array as="points">
                            <mxPoint x="120" y="1280"/>
                        </Array>
                    </mxGeometry>
                </mxCell>
                <mxCell id="29" value="i++" style="whiteSpace=wrap;html=1;fontSize=20;rounded=0;" vertex="1" parent="1">
                    <mxGeometry x="549.995" y="1250" width="120" height="60" as="geometry"/>
                </mxCell>
                <mxCell id="32" value="Конец" style="ellipse;whiteSpace=wrap;html=1;fontSize=20;rounded=0;" vertex="1" parent="1">
                    <mxGeometry x="378.4549999999999" y="1410" width="120" height="60" as="geometry"/>
                </mxCell>
                <mxCell id="34" value="Да" style="text;html=1;align=center;verticalAlign=middle;resizable=0;points=[];autosize=1;strokeColor=none;fillColor=none;fontSize=14;" vertex="1" parent="1">
                    <mxGeometry x="445" y="970" width="30" height="20" as="geometry"/>
                </mxCell>
                <mxCell id="35" value="Нет" style="text;html=1;align=center;verticalAlign=middle;resizable=0;points=[];autosize=1;strokeColor=none;fillColor=none;fontSize=14;" vertex="1" parent="1">
                    <mxGeometry x="620" y="910" width="40" height="20" as="geometry"/>
                </mxCell>
                <mxCell id="36" value="Да" style="text;html=1;align=center;verticalAlign=middle;resizable=0;points=[];autosize=1;strokeColor=none;fillColor=none;fontSize=14;" vertex="1" parent="1">
                    <mxGeometry x="399" y="390" width="30" height="20" as="geometry"/>
                </mxCell>
                <mxCell id="37" value="Да" style="text;html=1;align=center;verticalAlign=middle;resizable=0;points=[];autosize=1;strokeColor=none;fillColor=none;fontSize=14;" vertex="1" parent="1">
                    <mxGeometry x="228.44" y="575" width="30" height="20" as="geometry"/>
                </mxCell>
                <mxCell id="38" value="Да" style="text;html=1;align=center;verticalAlign=middle;resizable=0;points=[];autosize=1;strokeColor=none;fillColor=none;fontSize=14;" vertex="1" parent="1">
                    <mxGeometry x="236.88" y="1120" width="30" height="20" as="geometry"/>
                </mxCell>
                <mxCell id="39" value="Нет" style="text;html=1;align=center;verticalAlign=middle;resizable=0;points=[];autosize=1;strokeColor=none;fillColor=none;fontSize=14;" vertex="1" parent="1">
                    <mxGeometry x="600" y="320" width="40" height="20" as="geometry"/>
                </mxCell>
                <mxCell id="40" value="Нет" style="text;html=1;align=center;verticalAlign=middle;resizable=0;points=[];autosize=1;strokeColor=none;fillColor=none;fontSize=14;" vertex="1" parent="1">
                    <mxGeometry x="601.57" y="575" width="40" height="20" as="geometry"/>
                </mxCell>
                <mxCell id="41" value="Нет" style="text;html=1;align=center;verticalAlign=middle;resizable=0;points=[];autosize=1;strokeColor=none;fillColor=none;fontSize=14;" vertex="1" parent="1">
                    <mxGeometry x="610.01" y="1149" width="40" height="20" as="geometry"/>
                </mxCell>
            </root>
        </mxGraphModel>
    </diagram>
</mxfile>